<svg width="83" height="16" viewBox="0 0 83 16" fill="none" xmlns="http://www.w3.org/2000/svg">
<g clip-path="url(#clip0_1733_7627)">
<path d="M82.0219 0C82.3883 0 82.6803 0.29195 82.6803 0.652594C82.6803 1.01324 82.3826 1.30519 82.0219 1.30519C81.6613 1.30519 81.3636 1.01324 81.3636 0.652594C81.3636 0.29195 81.6556 0 82.0219 0ZM82.0219 1.20787C82.3311 1.20787 82.5887 0.955992 82.5887 0.646869C82.5887 0.337745 82.3311 0.0858674 82.0219 0.0858674C81.7128 0.0858674 81.4552 0.337745 81.4552 0.646869C81.4552 0.955992 81.7128 1.20787 82.0219 1.20787ZM81.9246 0.74991H81.8788V1.04758H81.7071V0.251878H82.0563C82.2051 0.251878 82.3082 0.360644 82.3082 0.503756C82.3082 0.646869 82.2051 0.738461 82.1135 0.738461C82.1994 0.841502 82.2795 0.944544 82.3654 1.04758H82.1651L81.9246 0.74991ZM81.8788 0.389266V0.618247H82.0448C82.1021 0.618247 82.1422 0.561001 82.1422 0.503756C82.1422 0.446511 82.0964 0.389266 82.0448 0.389266H81.8788ZM80.1729 0.131663H78.0033V3.88122H74.9121V0.131663H72.7139V9.49123H74.9121V5.77603H78.0033V9.49123H80.1729V5.77603H82.6803V3.88122H80.1729V0.131663ZM64.711 2.00358H67.0008V9.49123H69.1704V2.00358H71.4316V0.131663H64.7053V2.00358H64.711ZM60.4463 4.28766H58.6316V2.00358H60.4463C60.8871 2.00358 61.3965 2.46726 61.3965 3.14848C61.3965 3.8297 60.8813 4.29338 60.4463 4.29338V4.28766ZM61.4481 5.96494C62.9479 5.5585 63.5719 4.23614 63.5719 3.10841C63.5719 1.4254 62.364 0.131663 60.5608 0.131663H56.4334V9.49123H58.6316V6.09088H59.0438L61.7572 9.49123H64.2416L61.4481 5.96494ZM50.8863 9.61717C53.9318 9.61717 54.9565 7.12701 54.9565 4.80859C54.9565 2.49016 53.9318 0 50.8863 0C47.8409 0 46.8162 2.50161 46.8162 4.80859C46.8162 7.11556 47.8409 9.61717 50.8863 9.61717ZM50.8863 7.78533C49.6727 7.78533 49.0659 6.79499 49.0659 4.80859C49.0659 2.82218 49.6727 1.83184 50.8863 1.83184C52.0999 1.83184 52.7067 2.82218 52.7067 4.80859C52.7067 6.79499 52.0999 7.78533 50.8863 7.78533ZM39.7922 0.125939H37.6799V9.48551H39.8781V3.98426L43.33 9.48551H45.4767V0.125939H43.2785V5.62719L39.7922 0.125939ZM32.6824 4.28193H30.8677V1.99785H32.6824C33.1232 1.99785 33.6327 2.46154 33.6327 3.14275C33.6327 3.82397 33.1175 4.28766 32.6824 4.28766V4.28193ZM33.6842 5.95921C35.184 5.55277 35.808 4.23041 35.808 3.10268C35.808 1.41968 34.6001 0.125939 32.7969 0.125939H28.6695V9.48551H30.8677V6.08515H31.2799L33.9933 9.48551H36.4778L33.6842 5.95921ZM20.2316 9.48551H27.0838V7.58497H22.4298V5.63864H26.3683V3.80107H22.4298V1.99785H27.0838V0.125939H20.2316V9.48551ZM14.7075 6.25116L12.7325 0.125939H10.4255L13.6885 9.48551H15.7092L19.0352 0.125939H16.6939L14.7075 6.25116ZM9.52677 7.58497V9.48551H2.7604V5.7703H0.253071V3.87549H2.7604V0.125939H9.43518V1.99785H4.99869V3.87549H7.50602V5.7703H4.99869V7.58497H9.52677ZM39.7007 15.9313V14.6376H38.3955V15.9313H37.6856V12.7084H38.3955V13.985H39.7007V12.7084H40.4105V15.9313H39.7007ZM41.1375 15.9313V12.7084H43.5647V13.3381H41.8359V13.9907H43.3529V14.6204H41.8359V15.2959H43.5876V15.9256H41.1375V15.9313ZM46.5872 15.9313L46.2953 15.21H44.9329L44.6409 15.9313H43.9196L45.2992 12.6855H45.9518L47.3314 15.9313H46.593H46.5872ZM45.6083 13.5385L45.179 14.586H46.0377L45.6083 13.5385ZM47.7207 15.9313V12.7084H48.4305V15.2902H50.0391V15.9313H47.7207ZM51.5332 13.361V15.9313H50.8234V13.361H49.8445V12.7084H52.5178V13.361H51.5389H51.5332ZM54.9507 15.9313V14.6376H53.6456V15.9313H52.9357V12.7084H53.6456V13.985H54.9507V12.7084H55.6606V15.9313H54.9507ZM58.7862 15.9771C58.3053 15.9771 57.813 15.8168 57.418 15.4619L57.8359 14.9581C58.3511 15.376 58.7232 15.3474 58.7976 15.3474C59.2327 15.3474 59.2613 15.1242 59.2613 15.0383C59.2613 14.9352 59.3014 14.7979 58.6087 14.6261C58.4484 14.586 58.2996 14.5402 58.1679 14.4945C57.7042 14.3227 57.5382 14.0422 57.5382 13.6358C57.5382 12.6798 58.5686 12.6569 58.6602 12.6569C58.8434 12.6569 59.3529 12.6683 59.8566 13.0691L59.4903 13.6014C59.1869 13.3953 58.9178 13.2866 58.6545 13.2866C58.2767 13.2866 58.2423 13.4984 58.2423 13.5728C58.2423 13.6587 58.2252 13.7903 58.5973 13.9048C58.9121 14.0021 59.1067 14.0308 59.3758 14.1453C59.8166 14.3284 59.9654 14.6032 59.9654 14.9696C59.9654 15.4275 59.6792 15.9714 58.7862 15.9714V15.9771ZM60.5207 15.9313V12.7084H62.9479V13.3381H61.2191V13.9907H62.7361V14.6204H61.2191V15.2959H62.9708V15.9256H60.5207V15.9313ZM65.5354 15.9313L64.8427 14.9009H64.2874V15.9313H63.5776V12.7084H65.0488C65.8216 12.7084 66.2624 13.1034 66.2624 13.7732V13.7846C66.2624 13.8819 66.2853 14.5174 65.5697 14.7864L66.3597 15.937H65.5296L65.5354 15.9313ZM65.5468 13.8075C65.5468 13.3896 65.169 13.3496 64.9915 13.3496H64.2874V14.2769H65.003C65.5411 14.2769 65.5468 13.8819 65.5468 13.819V13.8075ZM68.3804 15.9542H67.7565L66.4513 12.7084H67.2355L68.077 14.9753L68.9185 12.7084H69.6856L68.3804 15.9542ZM70.0921 15.9313V12.7084H70.8019V15.9313H70.0921ZM73.0402 15.9886C71.6892 15.9886 71.3858 14.8265 71.3858 14.3284C71.3858 13.8304 71.7064 12.6569 73.0688 12.6569C73.4981 12.6569 73.9389 12.7542 74.3396 13.1549L73.8874 13.6758C73.5611 13.3839 73.315 13.3152 73.0631 13.3152C72.193 13.3152 72.13 14.2197 72.13 14.3227C72.13 14.4258 72.1987 15.3417 73.0631 15.3417C73.2119 15.3417 73.4924 15.3531 73.9103 14.9639L74.3626 15.4218C74.0019 15.8054 73.6355 16 73.0402 16V15.9886ZM74.8148 15.9313V12.7084H77.242V13.3381H75.5132V13.9907H77.0302V14.6204H75.5132V15.2959H77.2649V15.9256H74.8148V15.9313ZM78.9937 15.9771C78.5128 15.9771 78.0205 15.8168 77.6255 15.4619L78.0434 14.9581C78.5586 15.376 78.9307 15.3474 79.0051 15.3474C79.4402 15.3474 79.4688 15.1242 79.4688 15.0383C79.4688 14.9352 79.5089 14.7979 78.8162 14.6261C78.6559 14.586 78.5071 14.5402 78.3754 14.4945C77.9117 14.3227 77.7457 14.0422 77.7457 13.6358C77.7457 12.6798 78.7761 12.6569 78.8677 12.6569C79.0509 12.6569 79.5604 12.6683 80.0642 13.0691L79.6978 13.6014C79.3944 13.3953 79.1253 13.2866 78.862 13.2866C78.4842 13.2866 78.4499 13.4984 78.4499 13.5728C78.4499 13.6587 78.4327 13.7903 78.8048 13.9048C79.1196 14.0021 79.3143 14.0308 79.5833 14.1453C80.0241 14.3284 80.1729 14.6032 80.1729 14.9696C80.1729 15.4275 79.8867 15.9714 78.9937 15.9714V15.9771Z" fill="#3EFFC0"/>
</g>
<defs>
<clipPath id="clip0_1733_7627">
<rect width="83" height="16.0001" fill="white"/>
</clipPath>
</defs>
</svg>
