<svg width="225" height="25" viewBox="0 0 225 25" fill="none" xmlns="http://www.w3.org/2000/svg">
<path d="M33.3411 24.7218H27.4062V5.61023H35.2073C37.075 5.61023 39.163 5.66684 40.8061 6.6129C42.5897 7.67203 43.6488 9.56724 43.6488 11.6277C43.6488 13.4388 42.9519 15.166 41.5319 16.3078C40.0554 17.506 38.1603 17.7856 36.3216 17.7856H33.3411V24.7218ZM34.8726 13.6895C36.21 13.6895 37.8256 13.6056 37.8256 11.8233C37.8256 10.1237 36.378 9.98456 35.0393 9.98456H33.3411V13.6895H34.8726Z" fill="#A71930"/>
<path d="M50.9251 24.7218H44.9917V5.61023H54.7141C56.3862 5.61023 58.2249 5.83355 59.6449 6.78094C61.2329 7.78361 61.9863 9.48322 61.9863 11.3495C61.9863 13.8575 60.8707 15.3616 58.6147 16.3918L62.0689 24.7218H55.5501L52.7652 17.4234H50.9251V24.7218ZM50.9251 13.3273H53.071C54.3519 13.3273 55.8835 13.1317 55.8835 11.4886C55.8835 10.8481 55.5502 10.2352 54.9648 9.92806C54.4634 9.67859 53.8505 9.67858 53.2941 9.67858H50.9251V13.3273Z" fill="#A71930"/>
<path d="M78.3103 24.7218H63.9629V5.61023H78.3103V10.0121H69.7008V12.7984H76.6658V17.0598H69.7008V20.1532H78.3103V24.7218Z" fill="#A71930"/>
<path d="M84.2217 18.2029C84.723 19.9011 86.0053 20.5154 87.7035 20.5154C88.4569 20.5154 89.9609 20.4038 89.9609 19.3447C89.9609 18.1754 88.4844 17.9522 87.6209 17.7856C84.0261 17.0887 79.7647 16.1136 79.7647 11.5726C79.7647 9.7063 80.6847 7.86762 82.2163 6.78089C83.7754 5.6942 85.8097 5.33197 87.7035 5.33197C91.0201 5.33197 94.2237 6.69687 95.393 10.0121L90.5449 11.4886C89.9898 10.0685 88.9293 9.56719 87.4542 9.56719C86.6733 9.56719 85.559 9.79051 85.559 10.793C85.559 11.7957 86.9515 11.9899 87.6773 12.1579C89.4871 12.5202 91.4098 12.8259 93.0819 13.6895C94.9481 14.6922 95.9233 16.4758 95.9233 18.5652C95.9233 23.1612 91.3534 25 87.3977 25C83.3856 25 79.8198 23.3293 78.7896 19.1781L84.2217 18.2029Z" fill="#A71930"/>
<path d="M97.5718 5.6106H106.904C108.353 5.6106 109.83 5.72226 111.028 6.58574C112.309 7.50577 113.061 9.0649 113.061 10.6254C113.061 12.6307 111.78 14.3304 109.83 14.7766V14.8317C112.029 15.2228 113.535 16.8935 113.535 19.1784C113.535 20.8216 112.949 22.6603 111.585 23.6354C110.108 24.6932 108.046 24.7221 106.32 24.7221H97.5718V5.6106ZM105.316 12.9365C105.874 12.9365 106.542 12.9638 106.961 12.5757C107.322 12.2412 107.517 11.7673 107.517 11.3224C107.517 9.90098 106.347 9.70542 105.234 9.70542H102.949V12.9366L105.316 12.9365ZM105.484 20.4594C106.068 20.4594 106.71 20.4867 107.183 20.0971C107.601 19.7914 107.88 19.29 107.88 18.7597C107.88 18.1193 107.517 17.5339 106.961 17.2557C106.46 17.005 105.79 17.005 105.26 17.005H102.949V20.4593L105.484 20.4594Z" fill="#A71930"/>
<path d="M124.279 16.6431V24.7211H118.596V16.6431L112.16 5.6109H118.596L121.939 11.9066L125.142 5.6109H130.269L124.279 16.6431Z" fill="#A71930"/>
<path d="M140.27 24.7218H134.699V10.2077H130.687V5.61023H144.198V10.2077H140.27V24.7218Z" fill="#A71930"/>
<path d="M160.244 24.7218H145.896V5.61023H160.244V10.0121H151.636V12.7984H158.601V17.0598H151.636V20.1532H160.244V24.7218Z" fill="#A71930"/>
<path d="M168.517 24.7218H162.584V5.61023H172.306C173.978 5.61023 175.817 5.83355 177.237 6.78094C178.825 7.78361 179.577 9.48322 179.577 11.3495C179.577 13.8575 178.463 15.3616 176.207 16.3918L179.661 24.7218H173.142L170.356 17.4234H168.517V24.7218ZM168.517 13.3273H170.663C171.944 13.3273 173.476 13.1317 173.476 11.4886C173.476 10.8481 173.142 10.2352 172.557 9.92806C172.056 9.67859 171.443 9.67858 170.886 9.67858H168.517V13.3273Z" fill="#A71930"/>
<path d="M187.6 24.7223H181.694V5.61078H187.6V24.7223Z" fill="#A71930"/>
<path d="M200.304 20.9613H195.205L194.036 24.7214H189.271L195.205 5.61121H201.389L207.379 24.7214H201.389L200.304 20.9613ZM199.3 16.7826L197.741 11.2375L196.18 16.7826H199.3Z" fill="#A71930"/>
<path d="M219.81 24.7218L214.321 15.7789L212.621 12.3247L212.566 12.3797L212.621 12.6026C212.901 13.8284 213.013 14.4978 213.013 15.8076V24.7216H208.249V5.61005H213.792L220.199 16.2801L220.256 16.225L219.837 10.932V5.61005H224.601V24.7218H219.81Z" fill="#A71930"/>
<path d="M4.68059 11.1356L8.86209 4.22148L10.9749 7.46226L12.9913 4.22148L15.093 7.6964H15.3782C15.4457 7.31769 15.487 6.92786 15.487 6.52846C15.487 2.92267 12.5643 0 8.95853 0C5.35274 0 2.42871 2.92267 2.42871 6.52846C2.42871 8.32724 3.15593 9.9552 4.33215 11.1356H4.68059Z" fill="#A71930"/>
<path d="M8.85058 5.77124L10.3009 8.22147L4.41703 18.4273H11.9619L13.4618 21.0387H0L8.85058 5.77124Z" fill="#A71930"/>
<path d="M9.23717 17.4277H6.23877L12.9449 5.73853L21.7955 21.0707L18.9431 21.1187L13.0261 10.8977L9.23717 17.4277Z" fill="#A71930"/>
<path d="M15.283 22.0224L11.494 15.4774L13.0105 12.866L19.7648 24.5374H2.11182L3.51392 21.9893L15.283 22.0224Z" fill="#A71930"/>
</svg>
