<svg width="244" height="46" viewBox="0 0 244 46" fill="none" xmlns="http://www.w3.org/2000/svg">
<path d="M23.8063 33.9926C23.8231 37.1721 22.6084 40.1824 20.3813 42.4485C18.1373 44.7147 15.1679 45.9662 11.9791 45.9831H11.9117C8.75663 45.9831 5.78719 44.7654 3.54324 42.5331C1.28242 40.3176 0.0170316 37.3243 0.000159798 34.1279C-0.0335838 27.5493 5.28103 22.1544 11.861 22.1206H26.6745C32.2928 22.0868 36.8313 17.4868 36.7976 11.8721C36.7976 9.14926 35.7178 6.59559 33.7775 4.68456C31.8541 2.79044 29.3234 1.74191 26.6239 1.74191H26.5564C23.84 1.74191 21.2924 2.82426 19.3859 4.76912C17.4962 6.68015 16.4502 9.21691 16.4333 11.9059V16.489H14.6955V11.9904C14.6786 8.81103 15.9103 5.80073 18.1373 3.53456C20.3982 1.26838 23.3845 0.0169118 26.5564 0H26.6239C29.7789 0 32.7483 1.21765 34.9923 3.45C37.2531 5.68235 38.5016 8.67573 38.5185 11.8721C38.5522 18.4507 33.2376 23.8456 26.6745 23.8794H11.861C6.24273 23.9132 1.70421 28.5132 1.73796 34.1279C1.73796 36.8507 2.81775 39.4044 4.75801 41.3154C6.68139 43.2096 9.21216 44.2581 11.9117 44.2581H11.9791C14.6955 44.2581 17.2431 43.1757 19.1497 41.2309C21.0562 39.286 22.1022 36.7323 22.0853 34.0096V29.511H23.8231V34.0096L23.8063 33.9926ZM18.3904 20.1757H20.1282V11.9735C20.1113 8.38823 23.0133 5.44559 26.5901 5.42868H26.6239C30.1838 5.42868 33.0858 8.32059 33.1026 11.889C33.1026 13.6309 32.4446 15.2544 31.2299 16.489C30.0151 17.7235 28.3785 18.4169 26.6576 18.4169H22.0685V20.1588H26.6745C28.8678 20.1588 30.9262 19.2794 32.4784 17.7066C34.0306 16.1338 34.8573 14.0706 34.8573 11.8721C34.8404 7.32279 31.1286 3.65294 26.5901 3.66985C22.0853 3.70368 18.4073 7.39044 18.4073 11.9059V20.1588L18.3904 20.1757ZM16.4502 20.1757V18.4338H0.000159798V20.1757H16.4502ZM12.7721 16.489V14.7471H3.67821V16.489H12.7721ZM25.7465 29.511V31.2529H34.8404V29.511H25.7465ZM11.861 25.8243C9.6677 25.8243 7.60934 26.7037 6.05714 28.2765C4.50493 29.8323 3.66134 31.9125 3.67821 34.111C3.69508 38.6434 7.39001 42.3132 11.9117 42.3132H11.9623C16.4839 42.2963 20.1451 38.5926 20.1451 34.0772V25.8243H18.4073V34.0265C18.4242 37.6118 15.5391 40.5544 11.9623 40.5713H11.9285C8.36857 40.5713 5.46662 37.6794 5.44975 34.111C5.44975 32.3691 6.10775 30.7456 7.32252 29.511C8.53729 28.2765 10.1739 27.5831 11.8948 27.5831H16.4839V25.8412H11.8948L11.861 25.8243ZM22.0685 16.489H23.8063V11.9228C23.8063 10.3669 25.0717 9.11544 26.6239 9.11544C28.1761 9.11544 29.4246 10.3838 29.4246 11.9228C29.4246 13.4618 28.1592 14.7301 26.6239 14.7301H25.7465V16.4721H26.6239C29.1378 16.4721 31.1792 14.4257 31.1792 11.9059C31.1792 9.38603 29.1378 7.33971 26.6239 7.33971C24.11 7.33971 22.0685 9.38603 22.0685 11.9059V16.4721V16.489ZM22.0685 25.8243V27.5662H38.5185V25.8243H22.0685ZM16.4502 29.511H14.7124V34.0772C14.7124 35.6331 13.4639 36.8846 11.9117 36.8846C10.3594 36.8846 9.11093 35.6162 9.11093 34.0772C9.11093 32.5382 10.3763 31.2698 11.9117 31.2698H12.7721V29.5279H11.9117C9.39775 29.5279 7.35627 31.5743 7.35627 34.0941C7.35627 36.614 9.39775 38.6603 11.9117 38.6603C14.4256 38.6603 16.4502 36.614 16.4502 34.0941V29.5279V29.511Z" fill="#4EABD2"/>
<path d="M162.07 27.0589C162.492 28.1751 163.403 29.2743 165.124 29.2743C166.524 29.2743 167.469 28.4964 167.469 27.1773C167.469 23.8626 160.433 24.6067 160.433 19.5839C160.433 17.1486 162.239 15.356 165.124 15.356C168.009 15.356 169.359 17.453 169.747 18.5523L167.688 19.4655C167.334 18.7045 166.625 17.639 165.073 17.639C163.69 17.639 162.914 18.4846 162.914 19.567C162.914 22.6449 169.983 22.0868 169.983 27.0082C169.983 29.6295 168.093 31.5913 165.006 31.5913C161.918 31.5913 160.433 29.4435 159.961 28.0567L162.053 27.0758L162.07 27.0589Z" fill="#0B1D40"/>
<path d="M173.121 35.278L174.774 31.067L170.151 19.6008H172.767L175.905 28.0905L179.009 19.6008H181.557L175.466 35.278H173.121Z" fill="#0B1D40"/>
<path d="M183.092 28.0397C183.632 28.8176 184.425 29.5618 185.876 29.5618C186.905 29.5618 187.664 29.0375 187.664 28.1074C187.664 25.875 181.995 26.6699 181.995 22.6279C181.995 20.5647 183.733 19.3132 185.994 19.3132C188.254 19.3132 189.334 20.5816 189.79 21.4779L188.119 22.5941C187.782 22.0529 187.158 21.2919 185.859 21.2919C184.964 21.2919 184.306 21.7654 184.306 22.5603C184.306 24.7926 189.992 23.8625 189.992 27.9721C189.992 30.1368 188.17 31.5574 185.774 31.5574C183.379 31.5574 182.164 30.289 181.573 29.2404L183.092 28.0228V28.0397Z" fill="#0B1D40"/>
<path d="M191.883 17.1656H194.296V19.6009H196.658V21.6134H194.296V27.0421C194.296 28.8516 194.987 29.2575 196.286 29.2575C196.489 29.2575 196.759 29.2406 196.759 29.2406V31.3377C196.759 31.3377 196.337 31.4222 195.578 31.4222C192.743 31.4222 191.9 29.5281 191.9 26.6531V21.5965H190.601V19.584H191.9V17.1487L191.883 17.1656Z" fill="#0B1D40"/>
<path d="M202.832 19.3133C206.358 19.3133 208.433 21.7486 208.433 25.4184C208.433 25.6214 208.433 25.8243 208.416 26.0273H199.643C199.694 28.1074 201.178 29.4434 203.254 29.4434C205.008 29.4434 206.021 28.4626 206.476 27.803L208.079 29.0037C207.522 29.9677 205.987 31.5574 203.22 31.5574C199.592 31.5574 197.18 29.0037 197.18 25.4692C197.18 21.8501 199.66 19.2964 202.849 19.2964L202.832 19.3133ZM205.953 24.353C205.869 22.4251 204.519 21.3596 202.849 21.3596C201.178 21.3596 199.879 22.5265 199.727 24.353H205.953Z" fill="#0B1D40"/>
<path d="M226.082 31.2868H223.669V24.2853C223.669 22.4757 222.893 21.5118 221.442 21.5118C220.075 21.5118 219.08 22.5265 219.08 24.3022V31.2698H216.65V24.0485C216.65 22.4588 215.807 21.4948 214.423 21.4948C213.04 21.4948 212.078 22.5603 212.078 24.2515V31.2698H209.648V19.6007H212.027V21.1228C212.449 20.2265 213.58 19.3132 215.166 19.3132C216.751 19.3132 217.949 20.0743 218.506 21.2581C219.198 20.0235 220.497 19.3132 222.1 19.3132C224.732 19.3132 226.065 21.1228 226.065 23.6596V31.2868H226.082Z" fill="#0B1D40"/>
<path d="M228.95 28.0397C229.49 28.8176 230.283 29.5618 231.734 29.5618C232.763 29.5618 233.522 29.0375 233.522 28.1074C233.522 25.875 227.853 26.6699 227.853 22.6279C227.853 20.5647 229.591 19.3132 231.852 19.3132C234.113 19.3132 235.193 20.5816 235.648 21.4779L233.978 22.5941C233.64 22.0529 233.016 21.2919 231.717 21.2919C230.823 21.2919 230.165 21.7654 230.165 22.5603C230.165 24.7926 235.851 23.8625 235.851 27.9721C235.851 30.1368 234.028 31.5574 231.633 31.5574C229.237 31.5574 228.022 30.289 227.432 29.2404L228.95 28.0228V28.0397Z" fill="#0B1D40"/>
<path d="M49.8896 15.6096H52.3698V29.0206H57.8363V31.253H49.8896V15.6096Z" fill="#0B1D40"/>
<path d="M60.2831 15.1868C61.1267 15.1868 61.8016 15.8632 61.8016 16.7088C61.8016 17.5544 61.1267 18.2309 60.2831 18.2309C59.4395 18.2309 58.7646 17.5544 58.7646 16.7088C58.7646 15.8632 59.4395 15.1868 60.2831 15.1868ZM59.0852 19.6007H61.5147V31.2699H59.0852V19.6007Z" fill="#0B1D40"/>
<path d="M65.2264 32.5722C65.6482 32.8259 67.0148 33.4686 68.6345 33.4686C70.5747 33.4686 72.2957 32.7583 72.2957 30.5428V29.7649C72.0257 30.1539 70.8615 31.5744 68.567 31.5744C65.2264 31.5744 62.9824 29.0546 62.9824 25.4693C62.9824 21.884 65.2939 19.3303 68.6007 19.3303C70.7772 19.3303 72.0426 20.6494 72.3969 21.1906V19.6347H74.6915V29.7649C74.6915 34.145 72.0426 35.5994 68.6513 35.5994C67.0991 35.5994 65.4626 35.0752 64.4334 34.4833L65.2095 32.6061L65.2264 32.5722ZM68.8876 21.4781C66.8798 21.4781 65.4288 23.0847 65.4288 25.4355C65.4288 27.7862 66.9304 29.3928 68.9044 29.3928C70.9965 29.3928 72.3631 27.7355 72.3631 25.4355C72.3631 23.0509 70.8953 21.4781 68.8876 21.4781Z" fill="#0B1D40"/>
<path d="M86.3164 24.2516V31.2699H83.9037V24.0486C83.9037 22.442 82.8914 21.4949 81.5585 21.4949C80.0232 21.4949 78.994 22.6449 78.994 24.2177V31.2699H76.5645V15.1023H78.994V21.1229C79.517 20.2096 80.6812 19.3133 82.2502 19.3133C85.2534 19.3133 86.2995 21.6979 86.2995 24.2516H86.3164Z" fill="#0B1D40"/>
<path d="M88.6446 17.1656H91.0572V19.6009H93.4193V21.6134H91.0572V27.0421C91.0572 28.8516 91.749 29.2575 93.0481 29.2575C93.2506 29.2575 93.5205 29.2406 93.5205 29.2406V31.3377C93.5205 31.3377 93.0987 31.4222 92.3395 31.4222C89.505 31.4222 88.6614 29.5281 88.6614 26.6531V21.5965H87.3623V19.584H88.6614V17.1487L88.6446 17.1656Z" fill="#0B1D40"/>
<path d="M95.8817 28.0229C96.4216 28.8008 97.2146 29.5449 98.6656 29.5449C99.6948 29.5449 100.454 29.0207 100.454 28.0905C100.454 25.8582 94.7851 26.653 94.7851 22.6111C94.7851 20.5479 96.5229 19.2964 98.7837 19.2964C101.045 19.2964 102.124 20.5648 102.58 21.4611L100.91 22.5773C100.572 22.0361 99.9478 21.2751 98.6487 21.2751C97.7545 21.2751 97.0965 21.7486 97.0965 22.5434C97.0965 24.7758 102.782 23.8457 102.782 27.9552C102.782 30.1199 100.96 31.5405 98.5644 31.5405C96.1686 31.5405 94.9538 30.2721 94.3633 29.2236L95.8817 28.0059V28.0229Z" fill="#0B1D40"/>
<path d="M103.93 19.6007H106.224V21.1397C106.528 20.7169 107.726 19.3132 109.97 19.3132C113.294 19.3132 115.656 21.8669 115.656 25.4184C115.656 28.9698 113.445 31.5573 110.122 31.5573C107.911 31.5573 106.663 30.2213 106.359 29.7309V35.4471H103.93V19.6007ZM109.75 29.3926C111.775 29.3926 113.209 27.7522 113.209 25.4184C113.209 23.0846 111.708 21.4779 109.734 21.4779C107.591 21.4779 106.275 23.2706 106.275 25.4184C106.275 27.9551 107.81 29.3926 109.75 29.3926Z" fill="#0B1D40"/>
<path d="M122.354 19.3133C125.881 19.3133 127.956 21.7486 127.956 25.4184C127.956 25.6214 127.956 25.8243 127.939 26.0273H119.166C119.216 28.1074 120.701 29.4434 122.776 29.4434C124.531 29.4434 125.543 28.4626 125.982 27.803L127.585 29.0037C127.028 29.9677 125.493 31.5574 122.726 31.5574C119.098 31.5574 116.686 29.0037 116.686 25.4692C116.686 21.8501 119.166 19.2964 122.354 19.2964V19.3133ZM125.476 24.3361C125.391 22.4082 124.042 21.3427 122.371 21.3427C120.701 21.3427 119.402 22.5096 119.25 24.3361H125.476Z" fill="#0B1D40"/>
<path d="M134.603 19.3133C138.129 19.3133 140.204 21.7486 140.204 25.4184C140.204 25.6214 140.204 25.8243 140.187 26.0273H131.414C131.464 28.1074 132.949 29.4434 135.024 29.4434C136.779 29.4434 137.791 28.4626 138.23 27.803L139.833 29.0037C139.276 29.9677 137.741 31.5574 134.974 31.5574C131.346 31.5574 128.934 29.0037 128.934 25.4692C128.934 21.8501 131.414 19.2964 134.603 19.2964V19.3133ZM137.724 24.3361C137.639 22.4082 136.29 21.3427 134.619 21.3427C132.949 21.3427 131.65 22.5096 131.498 24.3361H137.724Z" fill="#0B1D40"/>
<path d="M152.909 31.2699H150.614V29.7479C150.31 30.1538 149.112 31.5574 146.868 31.5574C143.545 31.5574 141.183 29.0376 141.183 25.4523C141.183 21.867 143.393 19.3133 146.717 19.3133C148.927 19.3133 150.175 20.6494 150.479 21.1736V15.1023H152.909V31.2699ZM147.088 21.478C145.063 21.478 143.629 23.1354 143.629 25.4861C143.629 27.8369 145.131 29.4266 147.105 29.4266C149.247 29.4266 150.563 27.6339 150.563 25.4861C150.563 22.9324 149.028 21.478 147.088 21.478Z" fill="#0B1D40"/>
<path d="M240.694 22.594C238.871 22.594 237.387 21.1058 237.387 19.2793C237.387 17.4528 238.871 15.9646 240.694 15.9646C242.516 15.9646 244 17.4528 244 19.2793C244 21.1058 242.516 22.594 240.694 22.594ZM240.694 16.658C239.243 16.658 238.062 17.8418 238.062 19.2962C238.062 20.7506 239.243 21.9345 240.694 21.9345C242.145 21.9345 243.326 20.7506 243.326 19.2962C243.326 17.8418 242.145 16.658 240.694 16.658Z" fill="#0B1D40"/>
<path d="M240.524 19.0256C240.71 19.0256 240.845 18.9918 240.929 18.9241C241.014 18.8565 241.047 18.7381 241.047 18.5859C241.047 18.4337 240.997 18.3153 240.929 18.2477C240.845 18.18 240.71 18.1462 240.524 18.1462H240.153V19.0425H240.524M240.136 19.6344V20.9366H239.242V17.4697H240.592C241.047 17.4697 241.385 17.5543 241.587 17.7065C241.807 17.8587 241.908 18.0955 241.908 18.4337C241.908 18.6535 241.857 18.8565 241.739 18.9918C241.638 19.144 241.469 19.2455 241.233 19.3131C241.351 19.3469 241.469 19.4146 241.554 19.4991C241.638 19.5837 241.756 19.7359 241.84 19.9388L242.33 20.9197H241.385L240.963 20.0572C240.879 19.8881 240.794 19.7697 240.71 19.7021C240.626 19.6344 240.508 19.6006 240.356 19.6006H240.103" fill="#0B1D40"/>
</svg>
